<svg width="220" height="66" viewBox="0 0 220 66" xmlns="http://www.w3.org/2000/svg" xmlns:xlink="http://www.w3.org/1999/xlink"><defs><path id="a" d="M0 .104h65.755v65.865H0z"/><path id="c" d="M0 .093h147.56v47.649H0z"/></defs><g fill="none" fill-rule="evenodd"><g><mask id="b" fill="#fff"><use xlink:href="#a"/></mask><path d="M53.11 23.29s.826 6.28-3.188 10.114c-1.076-.624-2.387-.53-2.387-.53s2.637 1.924 3.077 8.077c0 0 2.508-3.496 1.891-7.053.499.227.928.593 1.283.991 2.623-7.895-.676-11.599-.676-11.599zm-13.443 4.072c.074-.944.64-.838 1.152-.76 1.126.174 2.492-.421 2.299-1.916 1.104.126 1.499.914 1.499.914-.078-2.44-2.768-3.096-3.58-2.798 0 0-2.086 3.347-3.526.9-.58 1.305 1.122 2.094 2.156 3.66zm-11.397-3.66c-1.44 2.447-3.526-.9-3.526-.9-.812-.298-3.502.359-3.58 2.798 0 0 .394-.788 1.5-.914-.195 1.495 1.172 2.09 2.298 1.917.512-.08 1.078-.185 1.153.759 1.034-1.566 2.736-2.355 2.155-3.66zm-10.049 9.173s-1.31-.095-2.386.53c-4.013-3.834-3.188-10.115-3.188-10.115s-3.3 3.704-.676 11.6c.355-.399.784-.765 1.282-.992-.616 3.557 1.892 7.053 1.892 7.053.44-6.153 3.076-8.076 3.076-8.076zm38.983-9.817c.086.132 4.357 8.316-.643 17.94l-.001-.004c-.38.722-.805 1.407-1.267 2.04 0 0-.519-2.107-1.584-3.226-.424 5.734-9.313 9.702-9.313 9.702 6.838-6.613 2.818-13.239 2.818-13.239s.45 2.641-1.337 4.727c-1.64-7.15-5.482-9.499-5.482-9.499 1.517 1.971 1.839 7.899 1.62 10.463-.147 1.706-1.503 2.974-2.921 2.957-1.983-.024-3.743-.918-4.25-1.427 0 0 2.163-.778 2.708-1.776-.44.082-.989-1.682 1.91-1.743.204-.068.233-.213.164-.396h.003c-.93-4.695-2.682-5.195-6.738-5.195-4.057 0-5.808.5-6.739 5.196h.003c-.07.182-.04.327.165.395 2.898.06 2.35 1.825 1.909 1.743.545.998 2.707 1.776 2.707 1.776-.506.51-2.266 1.403-4.25 1.427-1.418.017-2.773-1.251-2.92-2.957-.219-2.564.103-8.492 1.62-10.463 0 0-3.843 2.35-5.482 9.5-1.786-2.087-1.337-4.728-1.337-4.728s-4.02 6.626 2.818 13.239c0 0-8.889-3.968-9.313-9.702-1.065 1.119-1.584 3.226-1.584 3.226a16.456 16.456 0 0 1-1.267-2.04v.004c-5.001-9.624-.73-17.808-.644-17.94-1.209.33-1.603.606-1.603.606s1.56-3.788 3.667-5.559c-.712-.022-2.064.455-2.064.455.378-1.108 2.352-4.512 4.637-6.39.916-1.007-2.063-2.313-3.244-.855.647-2.889 5.05-1.84 5.05-1.84-4.07-3.457-8.162-.332-7.831 3.457C4.913 6.85 12.448 1.833 19.16 7.534c0 0 4.516-1.229 8.336-.513-.306-.362-1.134-.975-1.134-.975.35.044 3.544.153 5.119 2.58 0 0-5.856-.92-8.866 1.816 0 0 3.937-1.293 7.3.607 0 0-1.698.182-2.33.701 0 0 1.65.148 2.29.69-2.591 0-3.57.984-3.57.984 3.602-.02 6.26 2.096 6.586 2.448.324-.352 2.983-2.468 6.585-2.448 0 0-.979-.984-3.57-.984.64-.542 2.29-.69 2.29-.69-.632-.52-2.33-.701-2.33-.701 3.363-1.9 7.3-.607 7.3-.607-3.01-2.737-8.866-1.817-8.866-1.817 1.575-2.426 4.77-2.535 5.119-2.579 0 0-.828.613-1.134.975 3.82-.716 8.336.513 8.336.513 6.712-5.7 14.246-.685 11.971 5.398.33-3.79-3.762-6.914-7.832-3.456 0 0 4.404-1.05 5.051 1.839-1.181-1.458-4.16-.152-3.244.854 2.285 1.88 4.259 5.283 4.637 6.39 0 0-1.352-.476-2.064-.454 2.107 1.77 3.667 5.559 3.667 5.559s-.394-.275-1.603-.606zM40.041 47.99a.303.303 0 0 1 .372.414c-.873 1.925-.86 4.38-2.417 5.885-1.758 1.7-3.113 1.647-3.113 1.647.13-.494.098-1.106-.24-1.396-.284.967-1.182 1.862-2.287 2.313.456-1.225-1.06-1.864-1.281-2.01l-.017.001c.074.137.502.988-.01 1.547-.745-1.109-1.484-.463-2.456-1.15-2.46-.99-2.328-4.674-3.35-6.813-.117-.245.118-.51.37-.42.96.344 1.477 1.008 1.69 1.958.436 1.957 3.327 2.597 5.5 2.597s5.063-.64 5.5-2.597c.216-.966.746-1.637 1.739-1.976z" fill="#F4B740" mask="url(#b)"/><path d="M40.072 25.043a.682.682 0 0 0 1.323-.263.677.677 0 0 0-.356-.559 1.97 1.97 0 0 1-.967.822zm-15.33-.822a.674.674 0 0 0 .292 1.27.682.682 0 0 0 .675-.448 1.97 1.97 0 0 1-.967-.822zm5.541 24.874c.678.229 1.541.387 2.542.387s1.856-.16 2.523-.388c.046-.154.165-.291.374-.376.526-.21 1.506-1.054 1.642-1.707.022-.107.246-.114.29-.008.666 1.59-.324 2.88-1.184 2.947-.648.051-1.088-.222-1.139-.63-.29.25-.44.587-.487.89a9.622 9.622 0 0 1-1.997.205c-.712 0-1.39-.073-2.008-.203a1.56 1.56 0 0 0-.529-.892c-.031.408-.453.68-1.109.63-.871-.065-1.88-1.358-1.3-2.947.038-.106.262-.1.29.008.172.653 1.163 1.497 1.7 1.707.213.085.339.223.392.377zm7.74-11.412c-1.144-1.91-3.723-1.328-5.263-.755-1.54-.573-4.12-1.155-5.265.755 1.507-1.523 4.576.433 5.265.433.688 0 3.757-1.956 5.264-.433zM53.69.103c-2.377 0-4.783.696-7.008 2.018-1.892-.555-4.261-.877-6.526-.877-.854 0-1.686.044-2.491.131A1.762 1.762 0 0 0 36.55.933h-.122a1.797 1.797 0 0 0-.185.017c-1.302.167-2.494.644-3.365 1.04-.878-.4-2.083-.881-3.397-1.044a1.767 1.767 0 0 0-1.39.429 23.15 23.15 0 0 0-2.491-.131c-2.265 0-4.634.322-6.527.877C16.848.799 14.443.104 12.065.104c-3.803 0-7.17 1.808-9.006 4.837C1.98 6.72 1.462 8.875 1.562 11.174c.093 2.162.713 4.439 1.844 6.782a25.76 25.76 0 0 0-1.177 2.367 1.736 1.736 0 0 0 .065 1.498C1.471 23.559.377 26.409.01 29.849c-.051.478.099.948.4 1.305a26.76 26.76 0 0 0 .382 8.541c.916 4.352 2.943 8.347 6.027 11.872a1.766 1.766 0 0 0 1.776.544c.015-.003.03-.007.044-.012 1.882 1.767 5.699 4.422 13.234 7.115.161.058.329.09.496.1 1.126 1.727 2.511 2.469 3.77 3.143 1.13.606 2.106 1.129 3.087 2.402.333.432.848.686 1.395.687h.005c.237 0 .469-.047.683-.137a1.77 1.77 0 0 0 2.264.32c.39-.247.833-.545 1.268-.904a1.78 1.78 0 0 0 1.164-.02c4.58-1.684 5.858-3.537 7.03-5.498a1.797 1.797 0 0 0 .78-.093c7.556-2.7 11.393-5.357 13.286-7.119l.06.016a1.77 1.77 0 0 0 1.775-.544c3.084-3.525 5.112-7.52 6.027-11.872.583-2.772.711-5.637.382-8.541.301-.357.452-.827.401-1.305-.368-3.441-1.463-6.291-2.285-8.03a1.734 1.734 0 0 0 .066-1.496c-.027-.06-.524-1.22-1.177-2.367 1.131-2.343 1.75-4.62 1.844-6.782.1-2.3-.418-4.454-1.497-6.233C60.861 1.91 57.494.104 53.69.104zm0 1.748c6.722 0 11.792 6.558 6.647 16.185.822 1.22 1.567 2.968 1.567 2.968s-.455-.098-.761-.098a.842.842 0 0 0-.154.012s2.44 3.813 3.005 9.115l-.655-.438c.989 5.517.656 13.523-5.733 20.826-.176-.85-.377-1.15-.377-1.15s-2.002 4.008-14.01 8.299c0 0-.073-.262-.598-.935-1.843 2.72-1.993 4.607-7.228 6.531.154-.53.124-1.176-.297-1.513-.357 1.12-1.479 1.978-2.467 2.6.115-1.212-1.584-2.417-1.584-2.417s.298 1.04-.42 1.963C27.81 60.14 24.73 61.343 23 56.63c-.525.673-.53.939-.53.939-12.008-4.291-13.942-8.3-13.942-8.3s-.202.301-.378 1.151c-6.388-7.303-6.722-15.309-5.732-20.826l-.656.438c.566-5.302 3.006-9.115 3.006-9.115a.838.838 0 0 0-.154-.012c-.306 0-.761.098-.761.098s.744-1.748 1.567-2.968C.273 8.41 5.344 1.85 12.065 1.85c2.179 0 4.53.69 6.764 2.186 1.624-.585 4.116-1.046 6.77-1.046 1.324 0 2.688.115 4.004.385-.195-.347-.34-.696-.34-.696 1.455.18 2.819.868 3.615 1.243.796-.375 2.16-1.063 3.615-1.243 0 0-.145.35-.34.696a20.01 20.01 0 0 1 4.003-.385c2.655 0 5.147.461 6.77 1.046 2.233-1.496 4.586-2.186 6.764-2.186z" fill="#FFFFFE" mask="url(#b)"/><path d="M15.835 33.404c-4.013-3.833-3.188-10.114-3.188-10.114s-3.3 3.704-.676 11.6c.355-.399.784-.765 1.282-.992-.616 3.557 1.892 7.053 1.892 7.053.44-6.153 3.076-8.076 3.076-8.076s-1.31-.095-2.386.53zm9.874-8.36a1.97 1.97 0 0 1-.967-.823.674.674 0 0 0 .292 1.27.682.682 0 0 0 .675-.448zM28.27 23.7c.58 1.306-1.121 2.095-2.155 3.66-.075-.943-.641-.837-1.153-.758-1.126.173-2.493-.422-2.299-1.917-1.105.126-1.498.914-1.498.914.077-2.44 2.767-3.096 3.58-2.798 0 0 2.085 3.347 3.525.9zm30.322-10.769c2.275-6.083-5.259-11.099-11.971-5.398 0 0-4.516-1.229-8.336-.513.306-.362 1.134-.975 1.134-.975-.35.044-3.544.153-5.12 2.58 0 0 5.856-.92 8.867 1.816 0 0-3.937-1.293-7.3.607 0 0 1.698.182 2.33.701 0 0-1.65.148-2.29.69 2.591 0 3.57.984 3.57.984-3.602-.02-6.26 2.096-6.585 2.448-.325-.352-2.984-2.468-6.586-2.448 0 0 .979-.984 3.57-.984-.64-.542-2.29-.69-2.29-.69.632-.52 2.33-.701 2.33-.701-3.363-1.9-7.3-.607-7.3-.607 3.01-2.737 8.866-1.817 8.866-1.817-1.575-2.426-4.77-2.535-5.119-2.579 0 0 .828.613 1.134.975-3.82-.716-8.336.513-8.336.513-6.712-5.7-14.247-.685-11.971 5.398-.33-3.79 3.761-6.914 7.832-3.456 0 0-4.404-1.05-5.051 1.839 1.181-1.458 4.16-.152 3.244.854-2.285 1.88-4.259 5.283-4.637 6.39 0 0 1.352-.476 2.064-.454-2.107 1.77-3.667 5.559-3.667 5.559s.394-.275 1.603-.606c-.086.132-4.357 8.316.643 17.94l.001-.004c.38.722.805 1.407 1.267 2.04 0 0 .519-2.107 1.584-3.226.424 5.734 9.313 9.702 9.313 9.702-6.838-6.613-2.818-13.239-2.818-13.239s-.45 2.641 1.337 4.727c1.639-7.15 5.482-9.499 5.482-9.499-1.517 1.971-1.839 7.899-1.62 10.463.147 1.706 1.502 2.974 2.92 2.957 1.984-.024 3.744-.918 4.25-1.427 0 0-2.162-.778-2.707-1.776.44.082.99-1.682-1.91-1.743-.204-.068-.233-.213-.164-.396h-.003c.93-4.695 2.682-5.195 6.739-5.195 4.056 0 5.808.5 6.738 5.196h-.003c.07.182.04.327-.165.395-2.898.06-2.35 1.825-1.909 1.743-.545.998-2.707 1.776-2.707 1.776.506.51 2.266 1.403 4.249 1.427 1.418.017 2.774-1.251 2.92-2.957.22-2.564-.102-8.492-1.619-10.463 0 0 3.843 2.35 5.482 9.5 1.787-2.087 1.337-4.728 1.337-4.728s4.02 6.626-2.818 13.239c0 0 8.889-3.968 9.313-9.702 1.065 1.119 1.584 3.226 1.584 3.226.462-.633.888-1.318 1.267-2.04l.001.004c5-9.624.73-17.808.643-17.94 1.209.33 1.603.606 1.603.606s-1.56-3.789-3.667-5.559c.712-.022 2.064.455 2.064.455-.378-1.108-2.352-4.512-4.637-6.39-.917-1.007 2.063-2.313 3.244-.855-.647-2.889-5.05-1.84-5.05-1.84 4.07-3.457 8.162-.332 7.831 3.457zm-20.568 24.75c-1.145-1.909-3.724-1.327-5.264-.754-1.54-.573-4.12-1.155-5.265.755 1.507-1.523 4.576.433 5.265.433.688 0 3.757-1.956 5.264-.433zm-7.741 11.413c-.053-.154-.18-.292-.393-.377-.536-.21-1.527-1.054-1.699-1.707-.028-.107-.252-.114-.29-.008-.58 1.59.429 2.882 1.3 2.947.656.05 1.078-.222 1.11-.63.301.25.469.588.528.892.618.13 1.296.203 2.008.203.711 0 1.386-.074 1.997-.205.046-.303.197-.64.487-.89.05.408.491.681 1.139.63.86-.068 1.85-1.358 1.184-2.947-.044-.106-.268-.1-.29.008-.136.653-1.116 1.497-1.642 1.707-.209.085-.328.222-.374.376-.667.229-1.522.388-2.523.388-1.001 0-1.864-.158-2.542-.387zm9.758-1.104c-.993.339-1.524 1.01-1.739 1.976-.437 1.957-3.327 2.597-5.5 2.597s-5.064-.64-5.5-2.597c-.213-.95-.73-1.614-1.69-1.958-.252-.09-.487.175-.37.42 1.022 2.139.89 5.824 3.35 6.814.972.686 1.711.04 2.455 1.149.513-.56.085-1.41.011-1.547l.017-.002c.22.147 1.737.786 1.281 2.011 1.105-.451 2.003-1.346 2.288-2.313.337.29.37.902.239 1.396 0 0 1.355.053 3.113-1.647 1.556-1.505 1.544-3.96 2.417-5.885a.303.303 0 0 0-.372-.414zm23.298-18.396c.989 5.517.656 13.523-5.733 20.826-.176-.85-.377-1.15-.377-1.15s-2.002 4.008-14.01 8.299c0 0-.073-.262-.598-.935-1.843 2.72-1.993 4.607-7.228 6.531.154-.53.124-1.176-.297-1.513-.357 1.12-1.479 1.978-2.467 2.6.115-1.212-1.584-2.417-1.584-2.417s.298 1.04-.42 1.963C27.81 60.14 24.73 61.343 23 56.63c-.525.673-.53.939-.53.939-12.008-4.291-13.942-8.3-13.942-8.3s-.202.301-.378 1.151c-6.388-7.303-6.722-15.309-5.732-20.826l-.656.438c.566-5.302 3.006-9.115 3.006-9.115-.27-.052-.915.086-.915.086s.744-1.748 1.567-2.968C-1.395 5.29 9.706-2.08 18.829 4.037c2.432-.877 6.816-1.475 10.774-.66-.195-.348-.34-.697-.34-.697 1.455.18 2.819.868 3.615 1.243.796-.375 2.16-1.063 3.615-1.243 0 0-.145.35-.34.696 3.957-.814 8.341-.216 10.773.661C56.05-2.079 67.15 5.29 60.337 18.036c.822 1.22 1.567 2.968 1.567 2.968s-.645-.138-.915-.086c0 0 2.44 3.813 3.005 9.115l-.655-.438zM41.395 24.78a.677.677 0 0 0-.356-.559 1.97 1.97 0 0 1-.967.822.682.682 0 0 0 1.323-.263zm3.222.82s-.395-.788-1.5-.914c.194 1.495-1.172 2.09-2.298 1.917-.512-.08-1.078-.185-1.152.759-1.034-1.566-2.737-2.355-2.156-3.66 1.44 2.447 3.525-.9 3.525-.9.813-.298 3.503.359 3.58 2.798zm5.305 7.804c4.014-3.833 3.188-10.114 3.188-10.114s3.299 3.704.676 11.6c-.355-.399-.784-.765-1.282-.992.616 3.557-1.892 7.053-1.892 7.053-.44-6.153-3.077-8.076-3.077-8.076s1.31-.095 2.387.53z" fill="#042546" mask="url(#b)"/></g><path d="M218.152 26.581h-.004l-6.425-4.833-.005-3.58.005-.003h-23.177l4.05 3.584a1.594 1.594 0 0 0-1.58 1.593v19.135c0 .878.714 1.592 1.592 1.592h11.088c.454 0 .862-.193 1.152-.5l6.87 4.088.005-3.58-6.432-4.843h12.861v5.517c0 .63-.276 1.226-.756 1.636l-5.07 4.311a2.14 2.14 0 0 1-.612.361l.004-3.399-23.178-.003-3.941-3.664-.024-.021V21.846l.024-.021 3.942-3.663-3.875-3.436c.223-.076.456-.12.694-.12h25.663c.46 0 .915.152 1.284.427l4.982 3.715c.54.403.863 1.046.863 1.72v6.113zm-41.984 25.153l-1.807-1.536c-2.447-2.08-2.518-2.234-2.518-5.445V21.08c0-3.15.118-3.405 2.518-5.445l1.807-1.537v-3.585h-19.93l9.898 7.594v29.827l10.032 7.398v-3.598zm-34.2-39.804a3.105 3.105 0 0 0-2.621-1.43l-20.89.013v.002l10.011 6.88 9.03.001 19.753 30.538h8.885l-5.677-7.313-18.49-28.691zm-13.499 5.465l5.737 7.057.005 21.515a4.867 4.867 0 0 0 1.846 3.826l2.367 1.884v3.632h-.007l-2.06-1.578-7.889-6.12V17.394h.001zm-24.82 25.088c-.002.877-.715 1.59-1.592 1.59H90.974a1.593 1.593 0 0 1-1.592-1.592v-25.71a2.149 2.149 0 0 0-2.146-2.146l-13.829.002v.017l9.508 6.514v22.836l3.983 3.616h19.107l4.037-3.502-6.394-1.625zm12.631 3.211l-6.238-1.586-.001-22.968-9.481-6.512v-.001h10.498c.585 0 1.15.242 1.554.665l3.297 3.458c.382.401.593.927.593 1.48v24.524c0 .331-.08.65-.222.94z" fill="#1E3859"/><g transform="translate(72 9)"><mask id="d" fill="#fff"><use xlink:href="#c"/></mask><path d="M139.686 35.077l-6.432-4.843h-.002v3.243c0 .424-.17.807-.44 1.093l6.87 4.087.004-3.58zm-23.183 3.58l-3.941-3.664-.023-.021V12.846l.023-.021 3.942-3.663-3.875-3.436c-.253.087-.49.217-.697.392l-5.07 4.313a2.142 2.142 0 0 0-.757 1.635V35.75c0 .63.276 1.226.756 1.636l5.071 4.311c.388.33.883.512 1.392.512h25.573c.27 0 .533-.054.78-.15l.004-3.4-23.178-.003zm23.178-29.49v-.002h-23.173l4.05 3.584.013-.001h11.088c.878 0 1.593.715 1.593 1.594v3.24h12.859l-6.425-4.834-.005-3.58zM64.32 44.732l-7.887-6.12V8.393l-10.013-6.88.002 2.313 2.356 2.47c1.939 2.027 1.975 2.118 1.975 4.845v23.534c0 3.548-.047 3.662-2.496 6.143l-1.807 1.876.003 3.614H66.38l-2.06-1.578zM84.2 1.513v3.573l2.575 2.255a4.834 4.834 0 0 1 1.647 3.634v20.646l5.677 7.313V9.107L84.2 1.513zm.394 44.815a4.623 4.623 0 0 1-3.897-2.126l-18.528-28.75-5.737-7.057 9.028.001 19.754 30.538h8.885l10.032 7.398v.002l-19.537-.006zm-56.072-40.7v3.386l3.09 3.141v21.328l6.393 1.625-.001-22.968-9.482-6.512zm10.118 36.07c-.388.33-.882.512-1.39.512H11.69a2.145 2.145 0 0 1-1.39-.512L5.23 37.39a2.146 2.146 0 0 1-.755-1.635l.001-23.581L1.37 9.014v-3.37l9.508 6.514v22.836l3.983 3.616h19.107l4.037-3.502 6.238 1.586c-.128.262-.306.501-.534.695L38.64 41.7z" fill="#042546" mask="url(#d)"/><path d="M131.696 12.748h-11.088c-.878 0-1.593.715-1.593 1.594v19.135c0 .878.715 1.592 1.593 1.592h11.088c.878 0 1.593-.714 1.593-1.592v-3.243h12.863v5.517c0 .63-.276 1.226-.756 1.636l-5.07 4.311c-.39.33-.883.512-1.392.512H113.36a2.151 2.151 0 0 1-1.39-.512l-5.072-4.311a2.149 2.149 0 0 1-.756-1.636V12.066c0-.631.276-1.227.756-1.636l5.071-4.312c.389-.33.882-.511 1.391-.511h25.663c.46 0 .915.15 1.284.426l4.982 3.715c.54.403.863 1.046.863 1.72v6.113H133.29v-3.24c0-.878-.715-1.593-1.593-1.593zm15.864 6.241v-7.52a3.57 3.57 0 0 0-1.43-2.85l-4.982-3.715a3.574 3.574 0 0 0-2.125-.705H113.36c-.842 0-1.659.3-2.303.846l-5.07 4.312a3.55 3.55 0 0 0-1.253 2.709V35.75c0 1.042.456 2.03 1.251 2.708l5.072 4.312c.643.546 1.46.847 2.303.847h25.574c.843 0 1.66-.301 2.303-.847l5.072-4.313a3.554 3.554 0 0 0 1.251-2.707v-6.925h-15.679v4.65c0 .1-.084.185-.185.185h-11.088a.187.187 0 0 1-.185-.184V14.342c0-.102.084-.186.185-.186h11.088c.1 0 .184.084.185.186v4.647h15.68zM44.502 35.754c0 .63-.275 1.226-.756 1.635l-5.069 4.31c-.388.33-.882.511-1.39.511h-25.56a2.145 2.145 0 0 1-1.39-.512l-5.07-4.309a2.146 2.146 0 0 1-.755-1.635l.001-23.581-3.106-3.159V5.627l13.829-.002c1.183 0 2.146.963 2.146 2.146v25.71c0 .878.714 1.592 1.592 1.592h11.083c.878 0 1.591-.714 1.591-1.592V12.155l-3.088-3.14V5.626h10.498c.585 0 1.15.242 1.554.665l3.297 3.458c.382.401.593.927.593 1.48v24.524zm1.407-24.523c0-.915-.35-1.789-.981-2.451L41.63 5.32a3.563 3.563 0 0 0-2.572-1.1H27.152v5.37l3.09 3.141v20.75c0 .1-.085.185-.185.185H18.974a.187.187 0 0 1-.185-.185V7.77a3.557 3.557 0 0 0-3.553-3.553L0 4.22v5.37l3.106 3.158-.002 23.006c0 1.042.457 2.03 1.251 2.707l5.07 4.309a3.552 3.552 0 0 0 2.301.847h25.561c.843 0 1.66-.3 2.302-.846l5.07-4.31a3.551 3.551 0 0 0 1.25-2.706V11.23zm58.26 35.103l-19.538-.006a4.623 4.623 0 0 1-3.897-2.126l-18.528-28.75.005 21.515a4.867 4.867 0 0 0 1.846 3.826l2.367 1.884v3.632H46.489l-.002-3.614 1.806-1.876c2.45-2.48 2.496-2.595 2.496-6.143V11.142c0-2.727-.037-2.818-1.975-4.844l-2.356-2.471-.002-2.314 20.89-.013c1.066 0 2.046.534 2.623 1.43l18.49 28.69V10.976c0-1.392-.6-2.716-1.647-3.634l-2.575-2.255V1.513h19.931v3.585l-1.807 1.537c-2.4 2.04-2.518 2.295-2.518 5.445v23.673c0 3.211.07 3.365 2.518 5.445l1.807 1.536v3.6zm-2.32-7.499c-.663-.755-.599-1.69-.599-3.082V12.08s-.126-2.013.316-2.71c.401-.63 4.01-3.622 4.01-3.622V.105H82.83v5.619L85.884 8.4a3.425 3.425 0 0 1 1.168 2.575V26.84l-15.9-24.673A4.513 4.513 0 0 0 67.346.093L45.048.106l.003 4.285 3.716 3.93c.645.682.615 1.582.615 2.82v23.535c0 1.992.023 2.878-.725 3.702-.321.354-3.578 3.75-3.578 3.75l.004 5.589H67.83v-5.72l-2.898-2.305a3.466 3.466 0 0 1-1.314-2.726l-.004-16.73L79.55 44.964a6.026 6.026 0 0 0 5.08 2.77l20.944.007v-5.658s-3.374-2.847-3.726-3.249z" fill="#F4B840" mask="url(#d)"/></g></g></svg>